<?xml version="1.0" encoding="UTF-8" standalone="no"?>
<!-- Created with Inkscape (http://www.inkscape.org/) -->

<svg
   xmlns:dc="http://purl.org/dc/elements/1.1/"
   xmlns:cc="http://creativecommons.org/ns#"
   xmlns:rdf="http://www.w3.org/1999/02/22-rdf-syntax-ns#"
   xmlns:svg="http://www.w3.org/2000/svg"
   xmlns="http://www.w3.org/2000/svg"
   xmlns:sodipodi="http://sodipodi.sourceforge.net/DTD/sodipodi-0.dtd"
   xmlns:inkscape="http://www.inkscape.org/namespaces/inkscape"
   version="1.2"
   width="909.86157"
   height="43.239441"
   id="svg2"
   inkscape:version="0.48.5 r10040"
   sodipodi:docname="logo.svg">
  <sodipodi:namedview
     pagecolor="#ffffff"
     bordercolor="#666666"
     borderopacity="1"
     objecttolerance="10"
     gridtolerance="10"
     guidetolerance="10"
     inkscape:pageopacity="0"
     inkscape:pageshadow="2"
     inkscape:window-width="1827"
     inkscape:window-height="1057"
     id="namedview41"
     showgrid="false"
     fit-margin-top="0"
     fit-margin-left="0"
     fit-margin-right="0"
     fit-margin-bottom="0"
     inkscape:zoom="0.22425739"
     inkscape:cx="-264.25307"
     inkscape:cy="-93.099371"
     inkscape:window-x="85"
     inkscape:window-y="-8"
     inkscape:window-maximized="1"
     inkscape:current-layer="svg2" />
  <defs
     id="defs4" />
  <metadata
     id="metadata7">
    <rdf:RDF>
      <cc:Work
         rdf:about="">
        <dc:format>image/svg+xml</dc:format>
        <dc:type
           rdf:resource="http://purl.org/dc/dcmitype/StillImage" />
        <dc:title />
      </cc:Work>
    </rdf:RDF>
  </metadata>
  <g
     id="layer1"
     transform="translate(59.328939,-389.84228)"
     style="fill:#ffffff;fill-opacity:1">
    <g
       transform="translate(-118.57143,30)"
       id="flowRoot2985"
       style="font-size:40px;font-style:normal;font-variant:normal;font-weight:bold;font-stretch:normal;line-height:125%;letter-spacing:0px;word-spacing:0px;fill:#ffffff;fill-opacity:1;stroke:none;font-family:Fira Code;-inkscape-font-specification:Fira Code Bold">
      <path
         d="m 80.32222,366.4422 -6.759913,0 -2.919963,17.91977 -3.07996,-17.91977 -6.759913,0 -1.55998,27.71964 5.639928,0 0.199997,-11.75985 c 0.03833,-2.15579 0.02166,-4.0041 -0.05,-5.54493 -0.07167,-1.54079 -0.188337,-3.1591 -0.349995,-4.85494 l 3.399956,17.43978 4.959937,0 3.119959,-17.43978 c -0.145016,1.78333 -0.255015,3.41665 -0.329997,4.89994 -0.07502,1.48333 -0.08501,3.27664 -0.03,5.37993 l 0.319996,11.87985 5.759926,0 z"
         id="path2994"
         inkscape:connector-curvature="0"
         style="fill:#ffffff;fill-opacity:1" />
      <path
         d="m 103.22661,388.04192 0,-8.31989 c 0.008,-2.44829 -0.74834,-4.3116 -2.26997,-5.58993 -1.521666,-1.2783 -3.858301,-1.92162 -7.009912,-1.92998 -1.204995,0.002 -2.534977,0.13836 -3.989949,0.41 -1.454987,0.27168 -2.884967,0.66834 -4.289944,1.18998 l 1.439981,4.19995 c 1.085813,-0.36165 2.154132,-0.63831 3.204959,-0.82999 1.050811,-0.19165 1.929133,-0.28832 2.634966,-0.29 1.364971,-0.003 2.404957,0.26335 3.11996,0.79999 0.714976,0.53668 1.074971,1.36333 1.079986,2.47997 l 0,0.75999 -2.839963,0 c -3.301633,0.0142 -5.848264,0.64584 -7.639902,1.89498 -1.791646,1.24916 -2.698301,3.0308 -2.719965,5.34493 0.025,1.99331 0.67499,3.59662 1.949975,4.80993 1.27498,1.21332 3.024955,1.83665 5.249932,1.86998 1.342473,0.002 2.627455,-0.2325 3.85495,-0.70499 1.227471,-0.47249 2.262457,-1.19748 3.104961,-2.17497 0.499143,0.87165 1.1808,1.52831 2.044975,1.96997 0.86414,0.44166 1.91579,0.71833 3.15496,0.82999 l 1.31998,-4.15994 c -0.49585,-0.16417 -0.85418,-0.43583 -1.07499,-0.815 -0.22085,-0.37915 -0.32918,-0.96081 -0.32499,-1.74497 z m -9.919874,2.27997 c -0.905832,-0.006 -1.604155,-0.23416 -2.094973,-0.68499 -0.490836,-0.45083 -0.739165,-1.08915 -0.74499,-1.91498 -0.0067,-1.04331 0.406654,-1.83663 1.239984,-2.37997 0.833312,-0.54332 2.126628,-0.81664 3.87995,-0.81999 l 1.55998,0 0,3.47996 c -0.425009,0.74416 -0.995001,1.31582 -1.709978,1.71498 -0.715003,0.39916 -1.424993,0.60083 -2.129973,0.60499 z"
         id="path2996"
         inkscape:connector-curvature="0"
         style="fill:#ffffff;fill-opacity:1" />
      <path
         d="m 129.41096,372.92211 -6.47992,0 -4.47994,17.19978 -4.11995,-17.19978 -6.67991,0 6.71991,21.23973 2.19997,0 c -0.5325,1.34248 -1.29749,2.35747 -2.29497,3.04496 -0.99749,0.68749 -2.51247,1.15248 -4.54494,1.39498 l 0.71999,4.47994 c 3.19495,-0.17667 5.74492,-1.00332 7.6499,-2.47996 1.90496,-1.47666 3.31494,-3.62329 4.22995,-6.43992 z"
         id="path2998"
         inkscape:connector-curvature="0"
         style="fill:#ffffff;fill-opacity:1" />
      <path
         d="m 139.63551,375.08209 0,-11.27986 -6.31992,0.67999 0,29.67962 5.59993,0 0.23999,-1.91998 c 0.62832,0.84333 1.39164,1.48665 2.28997,1.92998 0.89831,0.44333 1.88163,0.66666 2.94997,0.66999 2.76994,-0.0633 4.87991,-1.13665 6.32991,-3.21996 1.44996,-2.0833 2.17995,-4.7966 2.18998,-8.13989 0.0133,-3.49744 -0.61335,-6.24241 -1.87998,-8.2349 -1.26667,-1.99245 -3.25331,-3.00744 -5.95992,-3.04496 -1.08917,0.01 -2.10082,0.27002 -3.03496,0.77999 -0.93417,0.51002 -1.73582,1.21001 -2.40497,2.09998 z m 3.11996,15.1598 c -0.67501,-0.002 -1.265,-0.16749 -1.76998,-0.49499 -0.505,-0.3275 -0.955,-0.80249 -1.34998,-1.42499 l 0,-8.95988 c 0.45582,-0.78581 0.96414,-1.39413 1.52498,-1.82498 0.56081,-0.43081 1.19914,-0.64914 1.91497,-0.65499 1.01331,-0.0517 1.81663,0.40168 2.40997,1.35998 0.59331,0.95834 0.89664,2.73165 0.90999,5.31994 -0.0117,2.37831 -0.33834,4.09162 -0.97999,5.13993 -0.64167,1.04832 -1.52832,1.56165 -2.65996,1.53998 z"
         id="path3000"
         inkscape:connector-curvature="0"
         style="fill:#ffffff;fill-opacity:1" />
      <path
         d="m 162.77989,385.40195 13.75983,0 c 0.04,-0.32998 0.07,-0.69998 0.09,-1.10998 0.02,-0.40999 0.03,-0.79998 0.03,-1.16999 -0.035,-3.44744 -0.935,-6.1224 -2.69996,-8.0249 -1.765,-1.90245 -4.18496,-2.86744 -7.25991,-2.89496 -3.35413,0.0809 -5.91576,1.18917 -7.6849,3.32496 -1.76915,2.13582 -2.6608,4.81412 -2.67496,8.0349 0.005,3.35746 0.93498,6.06242 2.78996,8.11489 1.85497,2.05248 4.60493,3.10746 8.24989,3.16496 1.8033,-0.0142 3.41661,-0.28583 4.83994,-0.81499 1.4233,-0.52916 2.63661,-1.23082 3.63995,-2.10497 l -2.51996,-3.43996 c -0.84168,0.54583 -1.71833,0.97416 -2.62997,1.28499 -0.91167,0.31083 -1.84832,0.46916 -2.80996,0.47499 -1.37583,0.0158 -2.51415,-0.35582 -3.41496,-1.11499 -0.90083,-0.75915 -1.46915,-2.0008 -1.70498,-3.72495 z m 3.91995,-8.95988 c 1.32831,0.0208 2.29163,0.48918 2.88997,1.40498 0.59831,0.91584 0.90164,2.15415 0.90998,3.71495 l -7.7999,0 c 0.14916,-1.75329 0.57082,-3.04661 1.26499,-3.87995 0.69415,-0.8333 1.6058,-1.24663 2.73496,-1.23998 z"
         id="path3002"
         inkscape:connector-curvature="0"
         style="fill:#ffffff;fill-opacity:1" />
      <path
         d="m 188.92424,380.16202 c -0.02,-3.22828 0.56998,-6.15157 1.76998,-8.76989 1.19997,-2.61827 3.12994,-5.36157 5.78992,-8.22989 l -3.63995,-3.31996 c -3.19497,2.67917 -5.70494,5.65079 -7.5299,8.91489 -1.82499,3.26414 -2.75497,7.06576 -2.78997,11.40485 0.035,4.33912 0.96499,8.14073 2.78997,11.40485 1.82497,3.26413 4.33493,6.23575 7.5299,8.91489 l 3.63995,-3.31996 c -2.83498,-3.04329 -4.81495,-5.83659 -5.93992,-8.37989 -1.125,-2.54329 -1.66499,-5.41659 -1.61998,-8.61989 z"
         id="path3004"
         inkscape:connector-curvature="0"
         style="fill:#ffffff;fill-opacity:1" />
      <path
         d="m 212.22862,375.68208 4.47995,0 0.71999,-11.19986 -5.95993,0 z"
         id="path3006"
         inkscape:connector-curvature="0"
         style="fill:#ffffff;fill-opacity:1" />
      <path
         d="m 248.37284,392.92186 -2.07997,-4.03995 c -0.50001,0.285 -1.06001,0.515 -1.67998,0.68999 -0.62001,0.175 -1.3,0.265 -2.03997,0.27 -1.05417,0.0108 -1.82583,-0.21083 -2.31497,-0.665 -0.48918,-0.45415 -0.73084,-1.20581 -0.72499,-2.25497 l 0,-9.63987 6.19992,0 0.63999,-4.35995 -6.83991,0 0,-5.35993 -6.31992,0.75999 0,4.59994 -4.43994,0 0,4.35995 4.43994,0 0,9.63987 c -0.006,2.46498 0.66582,4.39495 2.01497,5.78993 1.34914,1.39498 3.41078,2.10497 6.18492,2.12997 1.46247,-0.0125 2.77745,-0.1975 3.94495,-0.55499 1.16747,-0.3575 2.17245,-0.81249 3.01496,-1.36498 z"
         id="path3008"
         inkscape:connector-curvature="0"
         style="fill:#ffffff;fill-opacity:1" />
      <path
         d="m 259.55738,363.84223 -6.31992,0.63999 0,29.67962 6.31992,0 0,-14.67981 c 0.59498,-0.80831 1.19498,-1.44163 1.79998,-1.89998 0.60498,-0.45831 1.24497,-0.69164 1.91997,-0.69999 0.76748,-0.0167 1.30247,0.23668 1.60498,0.75999 0.30248,0.52334 0.44748,1.41667 0.435,2.67997 l 0,13.83982 6.31992,0 0,-15.5998 c -0.008,-2.03246 -0.51168,-3.59743 -1.50998,-4.69494 -0.99834,-1.09747 -2.44166,-1.65246 -4.32995,-1.66498 -1.18,-0.002 -2.28998,0.23169 -3.32996,0.69999 -1.03999,0.46835 -2.00998,1.18167 -2.90996,2.13998 z"
         id="path3010"
         inkscape:connector-curvature="0"
         style="fill:#ffffff;fill-opacity:1" />
      <path
         d="m 286.38172,361.80226 c -1.11916,0.0234 -2.02082,0.36669 -2.70497,1.02998 -0.68416,0.66336 -1.03582,1.50668 -1.05498,2.52997 0.0192,1.04085 0.37082,1.88917 1.05499,2.54497 0.68414,0.65585 1.5858,0.99418 2.70496,1.01498 1.11747,-0.0208 2.01246,-0.35913 2.68497,-1.01498 0.67247,-0.6558 1.01747,-1.50412 1.03498,-2.54497 -0.0175,-1.02329 -0.36251,-1.86661 -1.03498,-2.52997 -0.67251,-0.66329 -1.5675,-1.00662 -2.68497,-1.02998 z m 3.79995,11.11985 -12.11984,0 0,4.31995 5.79992,0 0,12.59984 -5.99992,0 0,4.31994 17.75977,0 0,-4.31994 -5.43993,0 z"
         id="path3012"
         inkscape:connector-curvature="0"
         style="fill:#ffffff;fill-opacity:1" />
      <path
         d="m 301.20621,394.16184 6.31992,0 0,-14.83981 c 0.59498,-0.76664 1.19498,-1.3633 1.79998,-1.78998 0.60498,-0.42664 1.24497,-0.6433 1.91997,-0.64999 0.76748,-0.0183 1.30247,0.23835 1.60498,0.76999 0.30248,0.53168 0.44748,1.44833 0.435,2.74997 l 0,13.75982 6.31992,0 0,-15.5998 c -0.0159,-2.03246 -0.53418,-3.59743 -1.55498,-4.69494 -1.02084,-1.09747 -2.44916,-1.65246 -4.28495,-1.66498 -1.34749,-8.1e-4 -2.55248,0.26085 -3.61495,0.78499 -1.0625,0.52418 -2.05748,1.31584 -2.98496,2.37497 l -0.44,-2.43997 -5.51993,0 z"
         id="path3014"
         inkscape:connector-curvature="0"
         style="fill:#ffffff;fill-opacity:1" />
      <path
         d="m 344.07035,369.52216 c -1.24168,0.78584 -2.63832,1.44417 -4.18995,1.97497 -1.55166,0.53085 -3.4883,0.77918 -5.80993,0.74499 -2.82747,0.0234 -5.10244,0.71668 -6.82491,2.07997 -1.72248,1.36334 -2.60747,3.25665 -2.65496,5.67993 -0.0108,1.37083 0.28082,2.54915 0.87499,3.53496 0.59415,0.98583 1.5558,1.83415 2.88496,2.54496 -0.76333,0.49084 -1.34666,1.08916 -1.74998,1.79498 -0.40333,0.70583 -0.60666,1.45415 -0.60999,2.24497 -0.0167,1.15499 0.49665,2.13498 1.53998,2.93996 1.04331,0.80499 2.71662,1.22499 5.01993,1.25999 l 3.35996,0 c 1.05581,0.0108 1.83413,0.20916 2.33497,0.59499 0.50081,0.38583 0.74914,0.89415 0.74499,1.52498 0.045,0.71415 -0.27501,1.29581 -0.95999,1.74498 -0.685,0.44915 -2.00498,0.68082 -3.95995,0.69499 -1.96915,0.003 -3.2808,-0.21334 -3.93495,-0.64999 -0.65416,-0.43667 -0.95582,-1.11333 -0.90498,-2.02998 l -5.59993,0 c -0.0817,2.12247 0.61166,3.78745 2.07997,4.99494 1.46831,1.20748 4.20161,1.82247 8.1999,1.84498 3.76327,-0.0208 6.59656,-0.64917 8.49989,-1.88498 1.90328,-1.23583 2.8566,-2.95413 2.85996,-5.15493 -0.0292,-1.81415 -0.76084,-3.28579 -2.19497,-4.41495 -1.43417,-1.12915 -3.39581,-1.71081 -5.88493,-1.74497 l -3.51995,0 c -0.98916,-0.0133 -1.63082,-0.14667 -1.92498,-0.4 -0.29417,-0.25332 -0.42583,-0.54665 -0.39499,-0.87999 8.2e-4,-0.24499 0.0592,-0.47499 0.175,-0.68999 0.11582,-0.21499 0.28415,-0.38499 0.50499,-0.50999 0.37832,0.08 0.77165,0.14 1.17999,0.17999 0.40831,0.04 0.84164,0.06 1.29998,0.06 2.77245,-0.0392 4.95742,-0.71081 6.55491,-2.01497 1.59746,-1.30414 2.41245,-3.00578 2.44497,-5.10493 -0.004,-1.36331 -0.35585,-2.47662 -1.05498,-3.33996 -0.69918,-0.86331 -1.72083,-1.57663 -3.06496,-2.13997 1.33496,0.003 2.50494,-0.0625 3.50995,-0.195 1.00497,-0.13248 1.87496,-0.34748 2.60997,-0.64499 z m -9.83988,6.83991 c 1.06248,-0.002 1.86746,0.28251 2.41497,0.85499 0.54748,0.57251 0.82248,1.44749 0.82499,2.62496 -0.005,1.2225 -0.28501,2.14749 -0.83999,2.77497 -0.55501,0.6275 -1.35499,0.9425 -2.39997,0.94499 -0.9925,-0.007 -1.77748,-0.32332 -2.35497,-0.94999 -0.5775,-0.62665 -0.87249,-1.5233 -0.88499,-2.68997 0.01,-1.1108 0.29999,-1.97912 0.86999,-2.60496 0.56999,-0.62581 1.35998,-0.94414 2.36997,-0.95499 z"
         id="path3016"
         inkscape:connector-curvature="0"
         style="fill:#ffffff;fill-opacity:1" />
      <path
         d="m 359.93483,380.16202 c 0.045,3.2033 -0.49501,6.07659 -1.61998,8.61989 -1.125,2.5433 -3.10497,5.3366 -5.93993,8.37989 l 3.63996,3.31996 c 3.19494,-2.67914 5.70491,-5.65076 7.5299,-8.91489 1.82496,-3.26412 2.75494,-7.06573 2.78996,-11.40485 -0.035,-4.33909 -0.965,-8.14071 -2.78996,-11.40485 -1.82499,-3.2641 -4.33496,-6.23573 -7.5299,-8.91489 l -3.63996,3.31996 c 2.65996,2.86832 4.58993,5.61162 5.78993,8.22989 1.19997,2.61832 1.78996,5.54162 1.76998,8.76989 z"
         id="path3018"
         inkscape:connector-curvature="0"
         style="fill:#ffffff;fill-opacity:1" />
      <path
         d="m 415.42348,375.04209 -18.15977,0 0,4.95993 18.15977,0 z m 0,8.39989 -18.15977,0 0,4.91993 18.15977,0 z"
         id="path3020"
         inkscape:connector-curvature="0"
         style="fill:#ffffff;fill-opacity:1" />
      <path
         d="m 465.03221,386.04194 c -0.0184,-2.49412 -0.75168,-4.41576 -2.19997,-5.76492 -1.44834,-1.34914 -3.50164,-2.40079 -6.15992,-3.15496 -2.15999,-0.64498 -3.64997,-1.23497 -4.46995,-1.76998 -0.82,-0.53497 -1.20999,-1.22496 -1.16998,-2.06997 0.0167,-0.9008 0.39332,-1.57913 1.12998,-2.03498 0.73665,-0.4558 1.7333,-0.68413 2.98996,-0.68499 1.12748,-8.1e-4 2.23246,0.19086 3.31496,0.575 1.08247,0.38418 2.09746,0.96584 3.04496,1.74497 l 3.07996,-3.55995 c -1.19834,-1.14746 -2.62165,-2.03245 -4.26994,-2.65497 -1.64833,-0.62246 -3.53164,-0.93746 -5.64993,-0.94498 -2.95497,0.0167 -5.41494,0.72335 -7.3799,2.11997 -1.96498,1.39667 -2.98497,3.38331 -3.05996,5.95992 -0.0342,2.07249 0.64415,3.78747 2.03497,5.14493 1.39081,1.3575 3.69911,2.52249 6.92491,3.49496 1.8883,0.55417 3.20161,1.13583 3.93995,1.74498 0.73831,0.60917 1.09164,1.40082 1.05999,2.37497 -0.0192,1.08666 -0.44085,1.92331 -1.26499,2.50996 -0.82417,0.58667 -1.93582,0.88333 -3.33496,0.88999 -1.47915,-0.004 -2.8408,-0.24582 -4.08494,-0.72499 -1.24416,-0.47915 -2.37581,-1.17081 -3.39496,-2.07497 l -3.31996,3.67995 c 1.14415,1.16416 2.6058,2.11581 4.38495,2.85496 1.77914,0.73916 3.97077,1.12082 6.57491,1.14499 3.56744,-0.0417 6.3324,-0.85832 8.2949,-2.44997 1.96245,-1.59164 2.95743,-3.70828 2.98496,-6.34992 z"
         id="path3022"
         inkscape:connector-curvature="0"
         style="fill:#ffffff;fill-opacity:1" />
      <path
         d="m 478.29672,372.20212 c -3.28247,0.0492 -5.81743,1.09084 -7.6049,3.12496 -1.78748,2.03416 -2.69247,4.76579 -2.71497,8.1949 0.0225,3.60412 0.92749,6.38575 2.71497,8.34489 1.78747,1.95914 4.32243,2.95079 7.6049,2.97496 3.28244,-0.0283 5.81741,-1.03165 7.6049,-3.00996 1.78746,-1.97831 2.69244,-4.7616 2.71497,-8.34989 -0.02,-3.44495 -0.92001,-6.17491 -2.69997,-8.1899 -1.77999,-2.01495 -4.31996,-3.04494 -7.6199,-3.08996 z m 0,4.67994 c 1.2958,-0.0125 2.25412,0.51251 2.87496,1.57498 0.62081,1.0625 0.92914,2.73748 0.92499,5.02494 0.004,2.36247 -0.30418,4.07745 -0.92499,5.14493 -0.62084,1.06749 -1.57916,1.59248 -2.87496,1.57498 -1.29583,0.0167 -2.25415,-0.50666 -2.87496,-1.56998 -0.62084,-1.06331 -0.92917,-2.76662 -0.92499,-5.10993 -0.004,-2.30663 0.30415,-3.99327 0.92499,-5.05994 0.62081,-1.06664 1.57913,-1.59329 2.87496,-1.57998 z"
         id="path3024"
         inkscape:connector-curvature="0"
         style="fill:#ffffff;fill-opacity:1" />
      <path
         d="m 508.80101,372.20212 c -0.955,0.0125 -1.81499,0.24752 -2.57997,0.70499 -0.765,0.45752 -1.46499,1.06251 -2.09997,1.81498 -0.24668,-0.85747 -0.65334,-1.49246 -1.21998,-1.90498 -0.56667,-0.41247 -1.25333,-0.61747 -2.05998,-0.61499 -0.92499,0.003 -1.73498,0.23752 -2.42997,0.70499 -0.69499,0.46752 -1.36498,1.15251 -2.00997,2.05498 l -0.43999,-2.03998 -4.59994,0 0,21.23973 5.47993,0 0,-15.6398 c 0.41915,-0.53081 0.81081,-0.89914 1.17498,-1.10499 0.36415,-0.20581 0.70582,-0.30414 1.02499,-0.29499 0.41082,-0.007 0.68915,0.14751 0.83499,0.46499 0.14582,0.31752 0.21415,0.84251 0.20499,1.57498 l 0,14.99981 4.47995,0 0,-15.6398 c 0.41664,-0.53081 0.8033,-0.89914 1.15998,-1.10499 0.35665,-0.20581 0.70331,-0.30414 1.03999,-0.29499 0.41081,-0.007 0.68914,0.14751 0.83499,0.46499 0.14581,0.31752 0.21414,0.84251 0.20499,1.57498 l 0,14.99981 5.39993,0 0,-15.7198 c 0.004,-2.16745 -0.35418,-3.75243 -1.07498,-4.75494 -0.72085,-1.00246 -1.82916,-1.49746 -3.32496,-1.48498 z"
         id="path3026"
         inkscape:connector-curvature="0"
         style="fill:#ffffff;fill-opacity:1" />
      <path
         d="m 522.54552,385.40195 13.75982,0 c 0.04,-0.32998 0.07,-0.69998 0.09,-1.10998 0.02,-0.40999 0.03,-0.79998 0.03,-1.16999 -0.035,-3.44744 -0.93501,-6.1224 -2.69997,-8.0249 -1.76499,-1.90245 -4.18496,-2.86744 -7.2599,-2.89496 -3.35413,0.0809 -5.91577,1.18917 -7.6849,3.32496 -1.76915,2.13582 -2.6608,4.81412 -2.67497,8.0349 0.005,3.35746 0.93499,6.06242 2.78997,8.11489 1.85497,2.05248 4.60493,3.10746 8.24989,3.16496 1.80329,-0.0142 3.41661,-0.28583 4.83994,-0.81499 1.42329,-0.52916 2.63661,-1.23082 3.63995,-2.10497 l -2.51997,-3.43996 c -0.84167,0.54583 -1.71833,0.97416 -2.62996,1.28499 -0.91168,0.31083 -1.84833,0.46916 -2.80997,0.47499 -1.37583,0.0158 -2.51414,-0.35582 -3.41495,-1.11499 -0.90083,-0.75915 -1.46916,-2.0008 -1.70498,-3.72495 z m 3.91995,-8.95988 c 1.3283,0.0208 2.29162,0.48918 2.88996,1.40498 0.59831,0.91584 0.90164,2.15415 0.90999,3.71495 l -7.7999,0 c 0.14916,-1.75329 0.57082,-3.04661 1.26498,-3.87995 0.69415,-0.8333 1.6058,-1.24663 2.73497,-1.23998 z"
         id="path3028"
         inkscape:connector-curvature="0"
         style="fill:#ffffff;fill-opacity:1" />
      <path
         d="m 548.68987,380.16202 c -0.02,-3.22828 0.56998,-6.15157 1.76997,-8.76989 1.19997,-2.61827 3.12995,-5.36157 5.78993,-8.22989 l -3.63995,-3.31996 c -3.19498,2.67917 -5.70494,5.65079 -7.52991,8.91489 -1.82498,3.26414 -2.75497,7.06576 -2.78996,11.40485 0.035,4.33912 0.96498,8.14073 2.78996,11.40485 1.82497,3.26413 4.33494,6.23575 7.52991,8.91489 l 3.63995,-3.31996 c -2.83498,-3.04329 -4.81495,-5.83659 -5.93993,-8.37989 -1.12499,-2.54329 -1.66498,-5.41659 -1.61997,-8.61989 z"
         id="path3030"
         inkscape:connector-curvature="0"
         style="fill:#ffffff;fill-opacity:1" />
      <path
         d="m 571.99425,375.68208 4.47994,0 0.71999,-11.19986 -5.95992,0 z"
         id="path3032"
         inkscape:connector-curvature="0"
         style="fill:#ffffff;fill-opacity:1" />
      <path
         d="m 608.13847,392.92186 -2.07998,-4.03995 c -0.50001,0.285 -1.06,0.515 -1.67997,0.68999 -0.62001,0.175 -1.3,0.265 -2.03998,0.27 -1.05417,0.0108 -1.82582,-0.21083 -2.31497,-0.665 -0.48917,-0.45415 -0.73083,-1.20581 -0.72499,-2.25497 l 0,-9.63987 6.19992,0 0.63999,-4.35995 -6.83991,0 0,-5.35993 -6.31992,0.75999 0,4.59994 -4.43994,0 0,4.35995 4.43994,0 0,9.63987 c -0.006,2.46498 0.66582,4.39495 2.01498,5.78993 1.34914,1.39498 3.41077,2.10497 6.18492,2.12997 1.46246,-0.0125 2.77744,-0.1975 3.94495,-0.55499 1.16746,-0.3575 2.17245,-0.81249 3.01496,-1.36498 z"
         id="path3034"
         inkscape:connector-curvature="0"
         style="fill:#ffffff;fill-opacity:1" />
      <path
         d="m 619.32301,363.84223 -6.31992,0.63999 0,29.67962 6.31992,0 0,-14.67981 c 0.59498,-0.80831 1.19497,-1.44163 1.79997,-1.89998 0.60499,-0.45831 1.24498,-0.69164 1.91998,-0.69999 0.76748,-0.0167 1.30247,0.23668 1.60498,0.75999 0.30248,0.52334 0.44748,1.41667 0.43499,2.67997 l 0,13.83982 6.31992,0 0,-15.5998 c -0.008,-2.03246 -0.51168,-3.59743 -1.50998,-4.69494 -0.99834,-1.09747 -2.44165,-1.65246 -4.32994,-1.66498 -1.18,-0.002 -2.28999,0.23169 -3.32996,0.69999 -1.04,0.46835 -2.00998,1.18167 -2.90996,2.13998 z"
         id="path3036"
         inkscape:connector-curvature="0"
         style="fill:#ffffff;fill-opacity:1" />
      <path
         d="m 646.14735,361.80226 c -1.11917,0.0234 -2.02082,0.36669 -2.70497,1.02998 -0.68417,0.66336 -1.03583,1.50668 -1.05499,2.52997 0.0192,1.04085 0.37082,1.88917 1.05499,2.54497 0.68415,0.65585 1.5858,0.99418 2.70497,1.01498 1.11747,-0.0208 2.01246,-0.35913 2.68496,-1.01498 0.67248,-0.6558 1.01747,-1.50412 1.03499,-2.54497 -0.0175,-1.02329 -0.36251,-1.86661 -1.03499,-2.52997 -0.6725,-0.66329 -1.56749,-1.00662 -2.68496,-1.02998 z m 3.79995,11.11985 -12.11985,0 0,4.31995 5.79993,0 0,12.59984 -5.99992,0 0,4.31994 17.75977,0 0,-4.31994 -5.43993,0 z"
         id="path3038"
         inkscape:connector-curvature="0"
         style="fill:#ffffff;fill-opacity:1" />
      <path
         d="m 660.97184,394.16184 6.31992,0 0,-14.83981 c 0.59498,-0.76664 1.19497,-1.3633 1.79997,-1.78998 0.60499,-0.42664 1.24498,-0.6433 1.91998,-0.64999 0.76748,-0.0183 1.30247,0.23835 1.60498,0.76999 0.30248,0.53168 0.44748,1.44833 0.43499,2.74997 l 0,13.75982 6.31992,0 0,-15.5998 c -0.0159,-2.03246 -0.53418,-3.59743 -1.55498,-4.69494 -1.02084,-1.09747 -2.44915,-1.65246 -4.28494,-1.66498 -1.3475,-8.1e-4 -2.55248,0.26085 -3.61496,0.78499 -1.06249,0.52418 -2.05748,1.31584 -2.98496,2.37497 l -0.43999,-2.43997 -5.51993,0 z"
         id="path3040"
         inkscape:connector-curvature="0"
         style="fill:#ffffff;fill-opacity:1" />
      <path
         d="m 703.83597,369.52216 c -1.24167,0.78584 -2.63832,1.44417 -4.18995,1.97497 -1.55166,0.53085 -3.4883,0.77918 -5.80992,0.74499 -2.82747,0.0234 -5.10244,0.71668 -6.82491,2.07997 -1.72248,1.36334 -2.60747,3.25665 -2.65497,5.67993 -0.0108,1.37083 0.28083,2.54915 0.87499,3.53496 0.59416,0.98583 1.55581,1.83415 2.88496,2.54496 -0.76333,0.49084 -1.34665,1.08916 -1.74997,1.79498 -0.40334,0.70583 -0.60667,1.45415 -0.61,2.24497 -0.0167,1.15499 0.49666,2.13498 1.53998,2.93996 1.04332,0.80499 2.71663,1.22499 5.01994,1.25999 l 3.35996,0 c 1.0558,0.0108 1.83412,0.20916 2.33496,0.59499 0.50082,0.38583 0.74915,0.89415 0.745,1.52498 0.045,0.71415 -0.27502,1.29581 -0.95999,1.74498 -0.68501,0.44915 -2.00499,0.68082 -3.95995,0.69499 -1.96915,0.003 -3.2808,-0.21334 -3.93495,-0.64999 -0.65417,-0.43667 -0.95583,-1.11333 -0.90499,-2.02998 l -5.59993,0 c -0.0817,2.12247 0.61166,3.78745 2.07998,4.99494 1.46831,1.20748 4.2016,1.82247 8.19989,1.84498 3.76327,-0.0208 6.59656,-0.64917 8.49989,-1.88498 1.90329,-1.23583 2.85661,-2.95413 2.85997,-5.15493 -0.0292,-1.81415 -0.76085,-3.28579 -2.19498,-4.41495 -1.43416,-1.12915 -3.3958,-1.71081 -5.88492,-1.74497 l -3.51996,0 c -0.98916,-0.0133 -1.63082,-0.14667 -1.92497,-0.4 -0.29417,-0.25332 -0.42584,-0.54665 -0.395,-0.87999 8.3e-4,-0.24499 0.0592,-0.47499 0.175,-0.68999 0.11582,-0.21499 0.28416,-0.38499 0.505,-0.50999 0.37831,0.08 0.77164,0.14 1.17998,0.17999 0.40832,0.04 0.84164,0.06 1.29998,0.06 2.77245,-0.0392 4.95742,-0.71081 6.55492,-2.01497 1.59746,-1.30414 2.41245,-3.00578 2.44497,-5.10493 -0.004,-1.36331 -0.35585,-2.47662 -1.05499,-3.33996 -0.69918,-0.86331 -1.72083,-1.57663 -3.06496,-2.13997 1.33497,0.003 2.50495,-0.0625 3.50996,-0.195 1.00496,-0.13248 1.87495,-0.34748 2.60996,-0.64499 z m -9.83987,6.83991 c 1.06247,-0.002 1.86746,0.28251 2.41497,0.85499 0.54747,0.57251 0.82247,1.44749 0.82499,2.62496 -0.005,1.2225 -0.28501,2.14749 -0.83999,2.77497 -0.55501,0.6275 -1.355,0.9425 -2.39997,0.94499 -0.9925,-0.007 -1.77749,-0.32332 -2.35497,-0.94999 -0.5775,-0.62665 -0.8725,-1.5233 -0.88499,-2.68997 0.01,-1.1108 0.29999,-1.97912 0.86999,-2.60496 0.56998,-0.62581 1.35997,-0.94414 2.36997,-0.95499 z"
         id="path3042"
         inkscape:connector-curvature="0"
         style="fill:#ffffff;fill-opacity:1" />
      <path
         d="m 719.70045,380.16202 c 0.045,3.2033 -0.49501,6.07659 -1.61998,8.61989 -1.125,2.5433 -3.10497,5.3366 -5.93992,8.37989 l 3.63995,3.31996 c 3.19495,-2.67914 5.70491,-5.65076 7.5299,-8.91489 1.82496,-3.26412 2.75495,-7.06573 2.78997,-11.40485 -0.035,-4.33909 -0.96501,-8.14071 -2.78997,-11.40485 -1.82499,-3.2641 -4.33495,-6.23573 -7.5299,-8.91489 l -3.63995,3.31996 c 2.65996,2.86832 4.58993,5.61162 5.78992,8.22989 1.19997,2.61832 1.78997,5.54162 1.76998,8.76989 z"
         id="path3044"
         inkscape:connector-curvature="0"
         style="fill:#ffffff;fill-opacity:1" />
      <path
         d="m 769.02918,361.76226 -5.87992,0 0,36.59953 5.87992,0 z"
         id="path3046"
         inkscape:connector-curvature="0"
         style="fill:#ffffff;fill-opacity:1" />
      <path
         d="m 816.03795,394.16184 7.95989,0 0,-27.71964 -5.55993,0 0,10.59986 c 0.015,2.51082 0.12499,4.74912 0.33,6.71491 0.20498,1.96582 0.41498,3.59413 0.62999,4.88494 l -7.03991,-22.19971 -8.19989,0 0,27.71964 5.55993,0 0,-10.43987 c -0.02,-2.48078 -0.14001,-4.76909 -0.36,-6.86491 -0.22,-2.09578 -0.42,-3.7541 -0.59999,-4.97493 z"
         id="path3048"
         inkscape:connector-curvature="0"
         style="fill:#ffffff;fill-opacity:1" />
      <path
         d="m 838.06235,372.20212 c -3.28247,0.0492 -5.81744,1.09084 -7.60491,3.12496 -1.78748,2.03416 -2.69246,4.76579 -2.71496,8.1949 0.0225,3.60412 0.92748,6.38575 2.71496,8.34489 1.78747,1.95914 4.32244,2.95079 7.60491,2.97496 3.28244,-0.0283 5.8174,-1.03165 7.6049,-3.00996 1.78745,-1.97831 2.69244,-4.7616 2.71496,-8.34989 -0.02,-3.44495 -0.92001,-6.17491 -2.69996,-8.1899 -1.78,-2.01495 -4.31996,-3.04494 -7.6199,-3.08996 z m 0,4.67994 c 1.2958,-0.0125 2.25412,0.51251 2.87496,1.57498 0.62081,1.0625 0.92914,2.73748 0.92499,5.02494 0.004,2.36247 -0.30418,4.07745 -0.92499,5.14493 -0.62084,1.06749 -1.57916,1.59248 -2.87496,1.57498 -1.29583,0.0167 -2.25415,-0.50666 -2.87497,-1.56998 -0.62083,-1.06331 -0.92916,-2.76662 -0.92499,-5.10993 -0.004,-2.30663 0.30416,-3.99327 0.92499,-5.05994 0.62082,-1.06664 1.57914,-1.59329 2.87497,-1.57998 z"
         id="path3050"
         inkscape:connector-curvature="0"
         style="fill:#ffffff;fill-opacity:1" />
      <path
         d="m 871.96659,392.92186 -2.07997,-4.03995 c -0.50001,0.285 -1.06001,0.515 -1.67998,0.68999 -0.62001,0.175 -1.3,0.265 -2.03997,0.27 -1.05417,0.0108 -1.82583,-0.21083 -2.31497,-0.665 -0.48918,-0.45415 -0.73084,-1.20581 -0.72499,-2.25497 l 0,-9.63987 6.19992,0 0.63999,-4.35995 -6.83991,0 0,-5.35993 -6.31992,0.75999 0,4.59994 -4.43994,0 0,4.35995 4.43994,0 0,9.63987 c -0.006,2.46498 0.66582,4.39495 2.01497,5.78993 1.34914,1.39498 3.41078,2.10497 6.18492,2.12997 1.46247,-0.0125 2.77745,-0.1975 3.94495,-0.55499 1.16747,-0.3575 2.17245,-0.81249 3.01496,-1.36498 z"
         id="path3052"
         inkscape:connector-curvature="0"
         style="fill:#ffffff;fill-opacity:1" />
      <path
         d="m 883.15113,363.84223 -6.31992,0.63999 0,29.67962 6.31992,0 0,-14.67981 c 0.59498,-0.80831 1.19498,-1.44163 1.79998,-1.89998 0.60498,-0.45831 1.24497,-0.69164 1.91997,-0.69999 0.76748,-0.0167 1.30247,0.23668 1.60498,0.75999 0.30248,0.52334 0.44748,1.41667 0.435,2.67997 l 0,13.83982 6.31992,0 0,-15.5998 c -0.008,-2.03246 -0.51168,-3.59743 -1.50998,-4.69494 -0.99834,-1.09747 -2.44166,-1.65246 -4.32995,-1.66498 -1.18,-0.002 -2.28998,0.23169 -3.32996,0.69999 -1.03999,0.46835 -2.00998,1.18167 -2.90996,2.13998 z"
         id="path3054"
         inkscape:connector-curvature="0"
         style="fill:#ffffff;fill-opacity:1" />
      <path
         d="m 909.97547,361.80226 c -1.11916,0.0234 -2.02082,0.36669 -2.70497,1.02998 -0.68416,0.66336 -1.03582,1.50668 -1.05498,2.52997 0.0192,1.04085 0.37082,1.88917 1.05499,2.54497 0.68414,0.65585 1.5858,0.99418 2.70496,1.01498 1.11747,-0.0208 2.01246,-0.35913 2.68497,-1.01498 0.67247,-0.6558 1.01747,-1.50412 1.03498,-2.54497 -0.0175,-1.02329 -0.36251,-1.86661 -1.03498,-2.52997 -0.67251,-0.66329 -1.5675,-1.00662 -2.68497,-1.02998 z m 3.79995,11.11985 -12.11984,0 0,4.31995 5.79992,0 0,12.59984 -5.99992,0 0,4.31994 17.75977,0 0,-4.31994 -5.43993,0 z"
         id="path3056"
         inkscape:connector-curvature="0"
         style="fill:#ffffff;fill-opacity:1" />
      <path
         d="m 924.79996,394.16184 6.31992,0 0,-14.83981 c 0.59498,-0.76664 1.19498,-1.3633 1.79998,-1.78998 0.60498,-0.42664 1.24497,-0.6433 1.91997,-0.64999 0.76748,-0.0183 1.30247,0.23835 1.60498,0.76999 0.30248,0.53168 0.44748,1.44833 0.435,2.74997 l 0,13.75982 6.31992,0 0,-15.5998 c -0.0159,-2.03246 -0.53418,-3.59743 -1.55498,-4.69494 -1.02084,-1.09747 -2.44916,-1.65246 -4.28495,-1.66498 -1.34749,-8.1e-4 -2.55248,0.26085 -3.61495,0.78499 -1.0625,0.52418 -2.05748,1.31584 -2.98496,2.37497 l -0.44,-2.43997 -5.51993,0 z"
         id="path3058"
         inkscape:connector-curvature="0"
         style="fill:#ffffff;fill-opacity:1" />
      <path
         d="m 967.6641,369.52216 c -1.24168,0.78584 -2.63832,1.44417 -4.18995,1.97497 -1.55166,0.53085 -3.4883,0.77918 -5.80993,0.74499 -2.82747,0.0234 -5.10244,0.71668 -6.82491,2.07997 -1.72248,1.36334 -2.60747,3.25665 -2.65496,5.67993 -0.0108,1.37083 0.28082,2.54915 0.87499,3.53496 0.59415,0.98583 1.5558,1.83415 2.88496,2.54496 -0.76333,0.49084 -1.34666,1.08916 -1.74998,1.79498 -0.40333,0.70583 -0.60666,1.45415 -0.60999,2.24497 -0.0167,1.15499 0.49665,2.13498 1.53998,2.93996 1.04331,0.80499 2.71662,1.22499 5.01993,1.25999 l 3.35996,0 c 1.05581,0.0108 1.83413,0.20916 2.33497,0.59499 0.50081,0.38583 0.74914,0.89415 0.74499,1.52498 0.045,0.71415 -0.27501,1.29581 -0.95999,1.74498 -0.685,0.44915 -2.00498,0.68082 -3.95995,0.69499 -1.96915,0.003 -3.2808,-0.21334 -3.93495,-0.64999 -0.65416,-0.43667 -0.95582,-1.11333 -0.90498,-2.02998 l -5.59993,0 c -0.0817,2.12247 0.61166,3.78745 2.07997,4.99494 1.46831,1.20748 4.20161,1.82247 8.1999,1.84498 3.76327,-0.0208 6.59656,-0.64917 8.49989,-1.88498 1.90328,-1.23583 2.8566,-2.95413 2.85996,-5.15493 -0.0292,-1.81415 -0.76084,-3.28579 -2.19497,-4.41495 -1.43417,-1.12915 -3.39581,-1.71081 -5.88493,-1.74497 l -3.51995,0 c -0.98916,-0.0133 -1.63082,-0.14667 -1.92498,-0.4 -0.29417,-0.25332 -0.42583,-0.54665 -0.39499,-0.87999 8.2e-4,-0.24499 0.0592,-0.47499 0.175,-0.68999 0.11582,-0.21499 0.28415,-0.38499 0.50499,-0.50999 0.37832,0.08 0.77165,0.14 1.17999,0.17999 0.40831,0.04 0.84164,0.06 1.29998,0.06 2.77245,-0.0392 4.95742,-0.71081 6.55491,-2.01497 1.59746,-1.30414 2.41245,-3.00578 2.44497,-5.10493 -0.004,-1.36331 -0.35585,-2.47662 -1.05498,-3.33996 -0.69918,-0.86331 -1.72083,-1.57663 -3.06496,-2.13997 1.33496,0.003 2.50494,-0.0625 3.50995,-0.195 1.00497,-0.13248 1.87496,-0.34748 2.60997,-0.64499 z m -9.83988,6.83991 c 1.06248,-0.002 1.86746,0.28251 2.41497,0.85499 0.54748,0.57251 0.82248,1.44749 0.82499,2.62496 -0.005,1.2225 -0.28501,2.14749 -0.83999,2.77497 -0.55501,0.6275 -1.35499,0.9425 -2.39997,0.94499 -0.9925,-0.007 -1.77748,-0.32332 -2.35497,-0.94999 -0.5775,-0.62665 -0.87249,-1.5233 -0.88499,-2.68997 0.01,-1.1108 0.29999,-1.97912 0.86999,-2.60496 0.56999,-0.62581 1.35998,-0.94414 2.36997,-0.95499 z"
         id="path3060"
         inkscape:connector-curvature="0"
         style="fill:#ffffff;fill-opacity:1" />
    </g>
  </g>
</svg>
